<svg xmlns="http://www.w3.org/2000/svg" xmlns:xlink="http://www.w3.org/1999/xlink" width="150.677" height="39.498" viewBox="0 0 150.677 39.498">
  <defs>
    <clipPath id="clip-path">
      <rect id="Rectangle_16" data-name="Rectangle 16" width="150.677" height="39.498" fill="#fff"/>
    </clipPath>
  </defs>
  <g id="switchfly-logo" transform="translate(0 0)">
    <g id="Group_1" data-name="Group 1" transform="translate(0 0)" clip-path="url(#clip-path)">
      <path id="Path_1" data-name="Path 1" d="M3.387,43.261A5.852,5.852,0,0,1,.9,41.293,4.906,4.906,0,0,1,0,38.688a.354.354,0,0,1,.356-.368H3.134a.359.359,0,0,1,.349.307,3.064,3.064,0,0,0,.966,1.787,3.559,3.559,0,0,0,2.506.822,3.86,3.86,0,0,0,2.6-.807,2.624,2.624,0,0,0,.934-2.081,2.273,2.273,0,0,0-.58-1.614,3.885,3.885,0,0,0-1.444-.963,21.866,21.866,0,0,0-2.392-.736A22.308,22.308,0,0,1,2.948,34,5.167,5.167,0,0,1,.9,32.374a4.7,4.7,0,0,1-.848-2.944A5.232,5.232,0,0,1,.9,26.457,5.428,5.428,0,0,1,3.274,24.5a8.639,8.639,0,0,1,3.539-.68,7.379,7.379,0,0,1,4.686,1.43A5.2,5.2,0,0,1,13.48,28.78a.353.353,0,0,1-.353.394H10.26a.358.358,0,0,1-.345-.3,2.644,2.644,0,0,0-.978-1.539,3.77,3.77,0,0,0-2.463-.764,3.5,3.5,0,0,0-2.265.708,2.466,2.466,0,0,0-.877,2.038A2.068,2.068,0,0,0,3.883,30.8a3.893,3.893,0,0,0,1.4.92,21.74,21.74,0,0,0,2.322.736,24.348,24.348,0,0,1,3.185,1.076,5.309,5.309,0,0,1,2.1,1.657,4.761,4.761,0,0,1,.864,2.987,5.372,5.372,0,0,1-.807,2.832,5.825,5.825,0,0,1-2.35,2.137,7.751,7.751,0,0,1-3.638.807,8.806,8.806,0,0,1-3.567-.694" transform="translate(0 -10.266)" fill="#fff"/>
      <path id="Path_2" data-name="Path 2" d="M50.115,31.9,45.493,46.788a.354.354,0,0,1-.338.249H42.288a.354.354,0,0,1-.341-.261l-2.73-10.01a.354.354,0,0,0-.683,0L35.8,46.776a.354.354,0,0,1-.341.261H32.6a.354.354,0,0,1-.338-.249L27.609,31.9a.354.354,0,0,1,.338-.46h2.529a.354.354,0,0,1,.343.265L33.666,42.67a.354.354,0,0,0,.685,0l2.9-10.971a.355.355,0,0,1,.343-.264h2.821a.354.354,0,0,1,.343.267l2.763,10.88a.354.354,0,0,0,.686,0L47.018,31.7a.354.354,0,0,1,.343-.266h2.416a.354.354,0,0,1,.338.459" transform="translate(-11.891 -13.547)" fill="#fff"/>
      <path id="Path_3" data-name="Path 3" d="M75.306,31.791V46.683a.354.354,0,0,1-.354.354h-2.52a.354.354,0,0,1-.354-.354V31.791a.354.354,0,0,1,.354-.354h2.52a.354.354,0,0,1,.354.354" transform="translate(-31.061 -13.547)" fill="#fff"/>
      <path id="Path_4" data-name="Path 4" d="M87.243,31.132a.354.354,0,0,0-.354.354v8.282a1.655,1.655,0,0,0,.41,1.26,2.04,2.04,0,0,0,1.4.382h1.628a.354.354,0,0,1,.355.354v1.981a.354.354,0,0,1-.355.354H88.135a4.91,4.91,0,0,1-3.341-1.019,4.2,4.2,0,0,1-1.161-3.313V24.974a.354.354,0,0,1,.354-.354h2.548a.354.354,0,0,1,.355.354v3.17a.354.354,0,0,0,.354.355h3.085a.354.354,0,0,1,.355.354v1.925a.354.354,0,0,1-.355.354Z" transform="translate(-36.041 -10.609)" fill="#fff"/>
      <path id="Path_5" data-name="Path 5" d="M100.331,34.8a6.95,6.95,0,0,1,2.7-2.817,8.645,8.645,0,0,1,8.65.354,6.486,6.486,0,0,1,2.374,3.381.354.354,0,0,1-.34.455h-2.773a.357.357,0,0,1-.325-.222,3.624,3.624,0,0,0-1.271-1.589,4.012,4.012,0,0,0-2.35-.652,3.908,3.908,0,0,0-3.157,1.4,5.928,5.928,0,0,0-1.175,3.921,5.985,5.985,0,0,0,1.175,3.936A3.89,3.89,0,0,0,107,44.381a3.572,3.572,0,0,0,3.643-2.294.263.263,0,0,1,.242-.168h2.827a.35.35,0,0,1,.334.46,6.887,6.887,0,0,1-2.4,3.319A7.52,7.52,0,0,1,107,47.1a7.737,7.737,0,0,1-3.964-1,7.037,7.037,0,0,1-2.7-2.832,9.657,9.657,0,0,1,0-8.465" transform="translate(-42.815 -13.354)" fill="#fff"/>
      <path id="Path_6" data-name="Path 6" d="M142.352,27.894a5.448,5.448,0,0,1,2.209,2.265,7.563,7.563,0,0,1,.807,3.624v8.848a.354.354,0,0,1-.355.354h-2.491a.354.354,0,0,1-.354-.354V34.264a4.529,4.529,0,0,0-1.048-3.214,3.729,3.729,0,0,0-2.859-1.119,3.775,3.775,0,0,0-2.874,1.119,4.49,4.49,0,0,0-1.062,3.214v8.366a.354.354,0,0,1-.354.354h-2.519a.354.354,0,0,1-.355-.354V22.387a.354.354,0,0,1,.355-.354h2.519a.354.354,0,0,1,.354.354v5.942a.355.355,0,0,0,.6.257,5.591,5.591,0,0,1,1.485-.918,6.96,6.96,0,0,1,2.761-.538,6.54,6.54,0,0,1,3.185.764" transform="translate(-56.494 -9.495)" fill="#fff"/>
      <path id="Path_7" data-name="Path 7" d="M167.826,29.334h-2.18a.354.354,0,0,0-.354.354V41.947a.354.354,0,0,1-.354.354H162.39a.354.354,0,0,1-.354-.354V25.6a4.907,4.907,0,0,1,1.43-3.921,6.458,6.458,0,0,1,4.123-1.227.358.358,0,0,1,.365.356v1.984a.358.358,0,0,1-.348.353,2.693,2.693,0,0,0-1.719.544,2.531,2.531,0,0,0-.595,1.911v.749a.354.354,0,0,0,.354.355h2.18a.354.354,0,0,1,.354.354V28.98a.354.354,0,0,1-.354.354" transform="translate(-69.827 -8.812)" fill="#fff"/>
      <path id="Path_8" data-name="Path 8" d="M181.085,22.387V42.63a.354.354,0,0,1-.354.355h-2.52a.354.354,0,0,1-.354-.355V22.387a.354.354,0,0,1,.354-.354h2.52a.354.354,0,0,1,.354.354" transform="translate(-76.645 -9.495)" fill="#fff"/>
      <path id="Path_9" data-name="Path 9" d="M203.237,31.436h-2.566a.354.354,0,0,0-.331.227l-4.134,10.785a.354.354,0,0,1-.662,0l-3.977-10.777a.355.355,0,0,0-.332-.232h-2.826a.354.354,0,0,0-.328.486l5.895,14.725a10.453,10.453,0,0,1-.364,1.131,3.47,3.47,0,0,1-3.216,2.167h-1.257a.356.356,0,0,0-.356.356v2.388a.356.356,0,0,0,.356.356h1.257a6.569,6.569,0,0,0,6.089-4.1l7.08-17.015a.354.354,0,0,0-.327-.491" transform="translate(-81.04 -13.547)" fill="#fff"/>
      <path id="Path_10" data-name="Path 10" d="M246.7.668a.5.5,0,0,0-.425-.6,6.876,6.876,0,0,0-7.662,5.291h0A10.532,10.532,0,0,1,228.558,13.6c-.108,0-.212,0-.316-.009l-.145-.007a7.2,7.2,0,0,1-1.808-.355,1.165,1.165,0,0,0-1.433.671l-1.939,4.661a.916.916,0,0,0,.577,1.232c.347.1.687.19,1.016.264l0,.01c.525.117,1.052.207,1.579.274a16.037,16.037,0,0,0,1.713.152l0-.011a17.3,17.3,0,0,0,9.848-2.708A17.315,17.315,0,0,0,245.32,6.858h0Z" transform="translate(-96.032 0)" fill="#3060f9"/>
      <path id="Path_11" data-name="Path 11" d="M238.647,29.728a17.269,17.269,0,0,0,3.431-1.09,10.327,10.327,0,0,0-2.512-6.356c.238.469,2.322,4.831-.919,7.446" transform="translate(-102.842 -9.602)" fill="#12123d"/>
      <path id="Path_12" data-name="Path 12" d="M242.666,12.339A17.237,17.237,0,0,0,233.6,5.256a.926.926,0,0,0-1.157.514l-1.934,4.648a.923.923,0,0,0,.6,1.235,10.829,10.829,0,0,1,1.079.39c.04.018.3.135.393.178a10.742,10.742,0,0,1,4.3,3.832,10.405,10.405,0,0,1,1.662,5.226,17.567,17.567,0,0,0,6.169-4.486,17.5,17.5,0,0,0-2.045-4.453" transform="translate(-99.304 -2.243)" fill="#8fa7ff"/>
      <path id="Path_13" data-name="Path 13" d="M71.926,24.079A2.067,2.067,0,0,1,73.4,20.54a1.964,1.964,0,0,1,1.444.595,2.12,2.12,0,0,1,0,2.944,1.964,1.964,0,0,1-1.444.595,2,2,0,0,1-1.472-.595" transform="translate(-30.739 -8.851)" fill="#fff"/>
    </g>
  </g>
</svg>
