<svg xmlns="http://www.w3.org/2000/svg" xmlns:xlink="http://www.w3.org/1999/xlink" width="63.82" height="54.798" viewBox="0 0 63.82 54.798">
  <defs>
    <clipPath id="clip-path">
      <rect id="Rectangle_11944" data-name="Rectangle 11944" width="63.82" height="54.798" transform="translate(0 0)" fill="none"/>
    </clipPath>
  </defs>
  <g id="switchfly-signet" transform="translate(0 0)">
    <g id="Group_28280" data-name="Group 28280" clip-path="url(#clip-path)">
      <path id="Path_5331" data-name="Path 5331" d="M63.788,1.789A1.337,1.337,0,0,0,62.653.183,18.385,18.385,0,0,0,42.163,14.33h0A28.16,28.16,0,0,1,15.278,36.362c-.287,0-.566-.012-.845-.024-.133-.005-.262-.012-.386-.018a19.29,19.29,0,0,1-4.836-.948,3.116,3.116,0,0,0-3.834,1.794L.19,49.632a2.451,2.451,0,0,0,1.544,3.295c.926.273,1.837.507,2.716.705l-.006.027c1.4.313,2.813.552,4.222.733a42.955,42.955,0,0,0,4.583.406l0-.029a46.273,46.273,0,0,0,26.336-7.241A46.306,46.306,0,0,0,60.1,18.342h0Z" fill="#3060f9"/>
      <path id="Path_5332" data-name="Path 5332" d="M24.049,53.821a46.227,46.227,0,0,0,9.177-2.914A28.044,28.044,0,0,0,28.781,36.93a28.394,28.394,0,0,0-2.274-3.021c.635,1.254,6.208,12.919-2.458,19.912" fill="#12123d"/>
      <path id="Path_5333" data-name="Path 5333" d="M44.257,27A46.1,46.1,0,0,0,20.012,8.056,2.477,2.477,0,0,0,16.919,9.43L11.746,21.86a2.467,2.467,0,0,0,1.6,3.3,29.01,29.01,0,0,1,2.886,1.045c.106.046.809.36,1.051.475a28.567,28.567,0,0,1,8.155,5.988,28.511,28.511,0,0,1,3.346,4.259,27.842,27.842,0,0,1,4.446,13.978,46.961,46.961,0,0,0,16.5-12A46.814,46.814,0,0,0,44.257,27" fill="#8fa7ff"/>
    </g>
  </g>
</svg>
